<?xml version="1.0" encoding="utf-8"?>
<!-- Generator: Adobe Illustrator 21.1.0, SVG Export Plug-In . SVG Version: 6.00 Build 0)  -->
<svg version="1.1" id="Layer_1" xmlns="http://www.w3.org/2000/svg" xmlns:xlink="http://www.w3.org/1999/xlink" x="0px" y="0px"
	 viewBox="0 0 129.2 68.9" style="enable-background:new 0 0 129.2 68.9;" xml:space="preserve">
<style type="text/css">
	.st0{display:none;}
	.st1{fill:#FFFFFF;}
	.st2{enable-background:new    ;}
</style>
<rect x="-8.8" y="-37.3" class="st0" width="144" height="144"/>
<g>
	<g>
		<path class="st1" d="M6.6,6.8c0-0.6,23-1.1,46.5-1.1s54.3,0.5,54.3,1.1S76.6,7.9,53.1,7.9S6.6,7.4,6.6,6.8z"/>
	</g>
	<g>
		<path class="st1" d="M2.8,51.2c0-0.6,26.3-1.1,53.2-1.1s62.1,0.5,62.1,1.1S82.9,52.3,56,52.3C29,52.3,2.8,51.8,2.8,51.2z"/>
	</g>
	<g>
		<path class="st1" d="M26.1,29.8h-5.5c-1.1,0-2,0.9-2,2c0,1.1,0.9,2,2,2h5.5c1.1,0,2-0.9,2-2S27.2,29.8,26.1,29.8z"/>
		<path class="st1" d="M59.7,12.6c-0.2-1.4-1-2.1-2.2-2.1c-0.2,0-0.4,0-0.5,0s-0.2,0-0.3,0l0,0c-0.2-0.1-0.5-0.1-0.7-0.1
			c-1.2,0-2.2,0.9-2.4,2.1v0.1l-6.8,22.8L40,12.6v-0.1c-0.2-1.2-1.4-2.1-3-2.1s-2.8,0.9-3,2.1L29,43c-0.1,0.8,0.1,1.5,0.5,2
			s1.1,0.8,1.8,0.8c1.2,0,2.2-0.9,2.3-2.1l3.8-23.3l6.9,23.2v0.1c0.2,1.2,1.2,2.1,2.4,2.1l0,0c1.2,0,2.2-0.9,2.4-2.1v-0.1l7-23.3
			l5.1,33.1c0.2,1.3,1.1,2.1,2.3,2.1l0,0c0.7,0,1.3-0.3,1.8-0.8s0.7-1.2,0.6-2L59.7,12.6z"/>
		<path class="st1" d="M91.2,36.4h1.5c1.5,0,2.5-1.1,2.5-2.1s-0.9-2.1-2.5-2.1h-2.9c0,0-0.1,0-0.1-0.1l-6.9-20
			c-0.4-1-1.5-1.7-2.9-1.7s-2.5,0.7-2.9,1.7L66.4,42.5c-0.3,0.8-0.2,1.6,0.3,2.2c0.4,0.6,1.2,1,1.9,1c1,0,1.9-0.6,2.3-1.7L80,18.2
			c0.1,0.2,0.2,0.7,0.4,1.2c1,2.8,3.3,9.2,4.4,12.5c0,0.1,0,0.1,0,0.1h-4.4c-1.5,0-2.5,1.1-2.5,2.1s0.9,2.1,2.5,2.1h5.8
			c0,0,0.1,0,0.1,0.1l6,17.7c0.4,1,1.2,1.7,2.3,1.7c0.8,0,1.5-0.4,1.9-1s0.5-1.4,0.3-2.2L91.2,36.4z"/>
		<path class="st1" d="M119.4,0c-1.3,0-2.4,1.1-2.4,2.5v33l-16.2-23.9c-0.5-0.7-1.2-1.1-2.1-1.1c-0.5,0-0.9,0.1-1.3,0.4
			c-0.7,0.5-1.1,1.3-1.1,2.1v30.1c0,1.4,1.1,2.5,2.4,2.5s2.4-1.1,2.4-2.5V20.3l16.1,23.8v0.1c0.4,0.9,1.2,1.5,2.2,1.5
			c1.3,0,2.4-1.1,2.4-2.5V2.5C121.8,1.1,120.7,0,119.4,0z"/>
		<path class="st1" d="M21.7,40.3H6.3c0.7-0.9,5.1-7.2,9.4-13.2c0,0,0.1-0.1,0.2-0.1h4.5c1.1,0,2-0.9,2-2v-0.1c0-1.1-0.9-2-2-2h-1.7
			c4.6-6.5,5.4-7.7,5.6-7.9c0.9-1.4,0.7-2.3,0.4-2.9c-0.7-1.3-2.5-1.3-3.1-1.3H7.1c-1.1,0-1.9,1-1.9,2.3c0,0.5,0.1,1,0.4,1.3
			c0.3,0.5,0.9,0.8,1.5,0.8H18l-5.2,7.6l-0.1,0.1H7.5c-1.1,0-2,0.9-2,2V25c0,1.1,0.9,2,2,2H10c-5.6,8.1-8.6,12.6-9.1,13.3
			c-0.8,1.3-1,2.6-0.5,3.7c0.5,0.9,1.4,1.4,2.6,1.4h18.8c0.7,0,1.2-0.3,1.6-0.8c0.3-0.4,0.4-0.9,0.4-1.4
			C23.7,41.8,23,40.3,21.7,40.3z"/>
	</g>
	<g>
		<path class="st1" d="M69.8,58.1c-4.8,0-5.8,0.6-6,0.8l0,0c0,0,0,0-0.1,0c-0.3-0.2-1.3-0.8-5.7-0.8c-4,0-5.8,0.5-6.6,1.3l0,0
			c-0.3,0.4-0.4,0.8-0.4,1.3c0,1.7,0,5.6,0,5.6h2.3c0,0,0-4.3,0-5.6S54,59,58,59c3.9,0,4.6,0.5,4.6,1.7s0,5.6,0,5.6h2.3
			c0,0,0-4.1,0-5.6s1-1.7,5-1.7s4.2,1.1,4.2,1.7c0,0.6,0,5.6,0,5.6h2.4c0,0,0-4.5,0-5.6S75.9,58.1,69.8,58.1z"/>
		<path class="st1" d="M107.9,59c2.1,0,12.5,0,12.5,0v-0.9c0,0-9.7,0-12.5,0s-4.4,1-4.4,2.4s1.7,2.1,4.4,2.1c2.7,0,6.1,0,7.9,0
			s2.1,1,2.1,1.5c0,0.2,0,0.4-0.1,0.5s-0.2,0.3-0.3,0.4c-0.3,0.3-0.8,0.4-1.7,0.4c-1.8,0-12.3,0-12.3,0v0.1h-0.4l0.4,0.4v0.4
			c0,0,9.4,0,12.3,0s4.6-0.6,4.6-2.3c0-1.7-2.2-2.4-4.6-2.4s-6.3,0-7.9,0s-2.1-0.8-2.1-1.2C105.8,60.1,105.8,59,107.9,59z"/>
		<path class="st1" d="M40,58.1H27V59h13.2c1.6,0,2.9,0.7,2.9,1.1v0.6l0,0h-0.3c0,0,0,0-0.1,0H31.8c-0.3,0-0.6,0-0.9,0.1
			c-1.4,0.1-2.6,0.4-3.3,1c-0.2,0.1-0.3,0.3-0.4,0.5C27,62.4,27,62.7,27,62.9v1.2c0,1.4,2.5,2.2,5.3,2.2h8.3c3,0,4.9-0.9,4.9-2v-3.5
			C45.4,58.8,42.8,58.1,40,58.1z M32.2,61.5h10.9v2.6c0,0.2-0.1,0.3-0.2,0.5l0,0c-0.4,0.4-1.2,0.7-2.2,0.7H32
			c-1.4,0-2.8-0.5-2.8-1.9C29.2,62.2,30.4,61.5,32.2,61.5z"/>
		<path class="st1" d="M16.3,58.1H8.1c-2.6,0-4.1,0.7-4.7,1.3l0,0l0,0c0,0.1-0.1,0.1-0.1,0.1c-0.1,0.2-0.2,0.3-0.2,0.5v4.2
			c0,0.9,1.7,1.9,4.5,1.9h11.6c0,0,0,0.1,0,0.3c-0.1,0.3-0.2,0.5-0.4,0.6l-0.1,0.1c-0.5,0.4-1.5,0.8-3.4,0.8H3.1v0.9h12.6
			c4,0,6.1-1.4,6.1-2.7v-4.9C21.7,59.4,20.1,58.1,16.3,58.1z M8.7,65.5c-2.1,0-3.2-0.4-3.2-0.9v-4.4C5.5,59.4,7,59,8.3,59h7.5
			c2,0,3.4,0.4,3.4,1.1v5.3l0,0L8.7,65.5L8.7,65.5z"/>
		<path class="st1" d="M98.2,61.4c0,0,2.1-0.4,2.1-1c0-1.1-1.2-2.3-4.8-2.3h-8.2c-2.9,0-4.5,0.7-5.1,1.4c0,0.1-0.1,0.1-0.1,0.1
			c-0.1,0.2-0.2,0.4-0.2,0.5v4c0,0.9,1.4,2.1,4.3,2.1h14.1v-0.9H87.7c-2.3,0-3.5-0.7-3.5-1.1v-0.6L98.2,61.4z M84.2,60.1
			c0-0.7,1.1-1.1,3-1.1h7.9c2.3,0,3.4,1.4,2.5,1.5s-13.4,2.2-13.4,2.2V60.1z"/>
	</g>
	<g class="st2">
		<path class="st1" d="M128.6,8.6c0,1.1-0.9,2-2,2c-1.1,0-2-0.9-2-2c0-1.1,0.9-2,2-2C127.8,6.7,128.6,7.5,128.6,8.6z M125.1,8.6
			c0,0.9,0.6,1.6,1.5,1.6c0.9,0,1.5-0.7,1.5-1.6c0-0.9-0.6-1.6-1.5-1.6C125.8,7.1,125.1,7.8,125.1,8.6z M126.3,9.7h-0.5v-2
			c0.2,0,0.4-0.1,0.8-0.1c0.4,0,0.5,0.1,0.7,0.1c0.1,0.1,0.2,0.2,0.2,0.4c0,0.2-0.2,0.4-0.4,0.5v0c0.2,0.1,0.3,0.2,0.4,0.5
			c0.1,0.3,0.1,0.4,0.1,0.5h-0.5c-0.1-0.1-0.1-0.3-0.2-0.5c0-0.2-0.2-0.3-0.4-0.3h-0.2V9.7z M126.3,8.5h0.2c0.3,0,0.5-0.1,0.5-0.3
			c0-0.2-0.1-0.3-0.4-0.3c-0.1,0-0.2,0-0.3,0V8.5z"/>
	</g>
</g>
</svg>
